# xmcd CD database file
# Copyright (C) 1993-1997  Ti Kan
#
# Track frame offsets:
#	150
#	16722
#	30402
#	46202
#	57090
#	73357
#	83445
#	99130
#	121547
#	134825
#	152992
#	163075
#	175417
#	190035
#
# Disc length: 2842 seconds
#
# Revision: 1
# Processed by: cddbd v1.4b41PL1 Copyright (c) Steve Scherf et al.
# Submitted via: xmcd 2.1 PL1
#
DISCID=aa0b180e
DTITLE=Jimmy Arnold - Southern Soul
DYEAR=1900
DGENRE=
TTITLE0=Jesse James
TTITLE1=Georgia Moon
TTITLE2=The Rebel Soldier
TTITLE3=Southern Comfort
TTITLE4=The Night They Drove Old Dixie Down
TTITLE5=Sail Away Ladies
TTITLE6=General Lee
TTITLE7=My Home's Across The Blue Ridge Mountains
TTITLE8=The Dixon Line
TTITLE9=Bonaparte's Retreat - Arkansas Soldier
TTITLE10=Lorena
TTITLE11=Southern Soul
TTITLE12=Heroes
TTITLE13=Sally Ann
EXTD=
EXTT0=
EXTT1=
EXTT2=
EXTT3=
EXTT4=
EXTT5=
EXTT6=
EXTT7=
EXTT8=
EXTT9=
EXTT10=
EXTT11=
EXTT12=
EXTT13=
PLAYORDER=
